# xmcd
#
# Track frame offsets:
#	150
#	15134
#	32641
#	54193
#	71184
#	87838
#	101828
#	119984
#	136016
#	152332
#	171747
#	191153
#	207762
#	227416
#
# Disc length: 3282 seconds
#
# Revision: 0
# Processed by: cddbd v1.5.2PL0 Copyright (c) Steve Scherf et al.
# Submitted via: VUPlayer 2.48
#
DISCID=b70cd00e
DTITLE=Klaidonis [LV] - Gaidot majas
DYEAR=2003
DGENRE=country
TTITLE0=Brivdienu laiks
TTITLE1=Ceru, gaidu...
TTITLE2=Astru laika
TTITLE3=Nedaudz tuvak mat
TTITLE4=Gaidot majas
TTITLE5=Burvigas brunetes
TTITLE6=Rudens sniegs
TTITLE7=Abelu ziedi
TTITLE8=Atminas no perona
TTITLE9=Velreiz
TTITLE10=Man acis jaaizver
TTITLE11=Kamina ogles
TTITLE12=Tikai sniegparslas krit...
TTITLE13=Vesti to
EXTD=
EXTT0=
EXTT1=
EXTT2=
EXTT3=
EXTT4=
EXTT5=
EXTT6=
EXTT7=
EXTT8=
EXTT9=
EXTT10=
EXTT11=
EXTT12=
EXTT13=Ripped by Haralds [LV]\n\nLong live freedom, music and love!!!
PLAYORDER=
